<svg width="191" height="55" viewBox="0 0 191 55" fill="none" xmlns="http://www.w3.org/2000/svg">
<path d="M58.2 43V14.2H63.02V38.48H75.74V43H58.2ZM79.5281 18.12V13.7H84.3481V18.12H79.5281ZM79.5281 43V21.4H84.3481V43H79.5281ZM90.7391 43V13.6H95.5591V43H90.7391ZM101.95 18.12V13.7H106.77V18.12H101.95ZM101.95 43V21.4H106.77V43H101.95ZM125.421 43C123.994 43.2667 122.594 43.38 121.221 43.34C119.861 43.3133 118.641 43.0667 117.561 42.6C116.481 42.12 115.661 41.3667 115.101 40.34C114.608 39.4067 114.348 38.4533 114.321 37.48C114.294 36.5067 114.281 35.4067 114.281 34.18V15.4H119.081V33.9C119.081 34.7667 119.088 35.5267 119.101 36.18C119.128 36.8333 119.268 37.3667 119.521 37.78C120.001 38.58 120.768 39.0267 121.821 39.12C122.874 39.2133 124.074 39.16 125.421 38.96V43ZM110.361 25.18V21.4H125.421V25.18H110.361ZM145.006 43V32.6C145.006 31.92 144.959 31.1667 144.866 30.34C144.772 29.5133 144.552 28.72 144.206 27.96C143.872 27.1867 143.366 26.5533 142.686 26.06C142.019 25.5667 141.112 25.32 139.966 25.32C139.352 25.32 138.746 25.42 138.146 25.62C137.546 25.82 136.999 26.1667 136.506 26.66C136.026 27.14 135.639 27.8067 135.346 28.66C135.052 29.5 134.906 30.58 134.906 31.9L132.046 30.68C132.046 28.84 132.399 27.1733 133.106 25.68C133.826 24.1867 134.879 23 136.266 22.12C137.652 21.2267 139.359 20.78 141.386 20.78C142.986 20.78 144.306 21.0467 145.346 21.58C146.386 22.1133 147.212 22.7933 147.826 23.62C148.439 24.4467 148.892 25.3267 149.186 26.26C149.479 27.1933 149.666 28.08 149.746 28.92C149.839 29.7467 149.886 30.42 149.886 30.94V43H145.006ZM130.026 43V14.2H134.326V29.36H134.906V43H130.026ZM153.105 43L162.185 14.2H169.245L178.325 43H173.365L165.125 17.16H166.205L158.065 43H153.105ZM158.165 36.76V32.26H173.285V36.76H158.165ZM182.341 43V14.2H187.161V43H182.341Z" fill="white" fill-opacity="0.75"/>
<path d="M12.3514 46.0002H26.7514C33.9874 46.0002 35.2834 43.1022 35.6614 39.5742L37.0114 25.1742C37.4974 20.7822 36.2374 17.2002 28.5514 17.2002H10.5514C2.86545 17.2002 1.60545 20.7822 2.09145 25.1742L3.44145 39.5742C3.81945 43.1022 5.11545 46.0002 12.3514 46.0002Z" stroke="white" stroke-opacity="0.75" stroke-width="3" stroke-miterlimit="10" stroke-linecap="round" stroke-linejoin="round"/>
<g opacity="0.4">
<path d="M12.3513 17.2V15.76C12.3513 12.574 12.3513 10 18.1113 10H20.9913C26.7513 10 26.7513 12.574 26.7513 15.76V17.2" fill="white" fill-opacity="0.75"/>
<path d="M12.3513 17.2V15.76C12.3513 12.574 12.3513 10 18.1113 10H20.9913C26.7513 10 26.7513 12.574 26.7513 15.76V17.2" stroke="#0D131E" stroke-width="3" stroke-miterlimit="10" stroke-linecap="round" stroke-linejoin="round"/>
</g>
<g opacity="0.4">
<path d="M23.1512 29.8002V31.6362C23.1512 33.5982 23.1332 35.2002 19.5512 35.2002C15.9872 35.2002 15.9512 33.6162 15.9512 31.6542V29.8002C15.9512 28.0002 15.9512 28.0002 17.7512 28.0002H21.3512C23.1512 28.0002 23.1512 28.0002 23.1512 29.8002ZM36.9212 26.2002C32.8642 29.1466 28.1268 31.0168 23.1512 31.6362L36.9212 26.2002ZM2.6618 26.6862C6.7118 29.4582 11.2838 31.1322 15.9458 31.6542L2.6618 26.6862Z" fill="white" fill-opacity="0.75"/>
<path d="M23.1512 31.6362V29.8002C23.1512 28.0002 23.1512 28.0002 21.3512 28.0002H17.7512C15.9512 28.0002 15.9512 28.0002 15.9512 29.8002V31.6542C15.9512 33.6162 15.9872 35.2002 19.5512 35.2002C23.1332 35.2002 23.1512 33.5982 23.1512 31.6362ZM23.1512 31.6362C28.1268 31.0168 32.8642 29.1466 36.9212 26.2002M2.6618 26.6862C6.7118 29.4582 11.2838 31.1322 15.9458 31.6542" stroke="white" stroke-width="3" stroke-miterlimit="10" stroke-linecap="round" stroke-linejoin="round"/>
</g>
</svg>
