<svg width="184" height="266" viewBox="0 0 184 266" fill="none" xmlns="http://www.w3.org/2000/svg">
<path d="M164.464 113.459L112.357 19.5619C105.355 6.92817 95.6658 0 85 0C74.3342 0 64.6454 6.92817 57.6435 19.5619L5.53578 113.459C-1.0591 125.441 -1.79186 136.933 3.50033 145.981C8.79251 155.028 19.214 160 32.8923 160H137.108C150.786 160 161.207 155.028 166.5 145.981C171.792 136.933 171.059 125.359 164.464 113.459Z" fill="#F1DD87"/>
<path d="M85.5 107.156C82.2713 107.156 79.5938 104.479 79.5938 101.25V61.875C79.5938 58.6462 82.2713 55.9688 85.5 55.9688C88.7288 55.9688 91.4062 58.6462 91.4062 61.875V101.25C91.4062 104.479 88.7288 107.156 85.5 107.156ZM85.5 132.742C85.0275 132.742 84.4763 132.663 83.925 132.585C83.4315 132.499 82.9537 132.34 82.5075 132.112C82.0056 131.94 81.5288 131.702 81.09 131.403L79.9087 130.458C78.4912 128.962 77.625 126.915 77.625 124.867C77.625 122.82 78.4912 120.772 79.9087 119.276L81.09 118.331C81.5625 118.016 82.035 117.78 82.5075 117.622C82.98 117.386 83.4525 117.228 83.925 117.15C84.9488 116.913 86.0512 116.913 86.9962 117.15C87.5475 117.228 88.02 117.386 88.4925 117.622C88.965 117.78 89.4375 118.016 89.91 118.331L91.0913 119.276C92.5087 120.772 93.375 122.82 93.375 124.867C93.375 126.915 92.5087 128.962 91.0913 130.458L89.91 131.403C89.4375 131.718 88.965 131.955 88.4925 132.112C88.02 132.348 87.5475 132.506 86.9962 132.585C86.5237 132.663 85.9725 132.742 85.5 132.742Z" fill="black"/>
<path d="M2.52 255V229.08H10.782C10.998 229.08 11.424 229.086 12.06 229.098C12.708 229.11 13.332 229.152 13.932 229.224C15.984 229.488 17.718 230.22 19.134 231.42C20.562 232.608 21.642 234.126 22.374 235.974C23.106 237.822 23.472 239.844 23.472 242.04C23.472 244.236 23.106 246.258 22.374 248.106C21.642 249.954 20.562 251.478 19.134 252.678C17.718 253.866 15.984 254.592 13.932 254.856C13.344 254.928 12.726 254.97 12.078 254.982C11.43 254.994 10.998 255 10.782 255H2.52ZM6.93 250.914H10.782C11.142 250.914 11.598 250.902 12.15 250.878C12.714 250.854 13.212 250.8 13.644 250.716C14.868 250.488 15.864 249.942 16.632 249.078C17.4 248.214 17.964 247.164 18.324 245.928C18.696 244.692 18.882 243.396 18.882 242.04C18.882 240.636 18.696 239.316 18.324 238.08C17.952 236.844 17.376 235.806 16.596 234.966C15.828 234.126 14.844 233.592 13.644 233.364C13.212 233.268 12.714 233.214 12.15 233.202C11.598 233.178 11.142 233.166 10.782 233.166H6.93V250.914ZM28.087 232.608V228.63H32.425V232.608H28.087ZM28.087 255V235.56H32.425V255H28.087ZM45.3229 255.54C42.9229 255.54 40.9729 255 39.4729 253.92C37.9729 252.84 37.0609 251.322 36.7369 249.366L41.1649 248.682C41.3929 249.642 41.8969 250.398 42.6769 250.95C43.4569 251.502 44.4409 251.778 45.6289 251.778C46.6729 251.778 47.4769 251.574 48.0409 251.166C48.6169 250.746 48.9049 250.176 48.9049 249.456C48.9049 249.012 48.7969 248.658 48.5809 248.394C48.3769 248.118 47.9209 247.854 47.2129 247.602C46.5049 247.35 45.4189 247.032 43.9549 246.648C42.3229 246.216 41.0269 245.754 40.0669 245.262C39.1069 244.758 38.4169 244.164 37.9969 243.48C37.5769 242.796 37.3669 241.968 37.3669 240.996C37.3669 239.784 37.6849 238.728 38.3209 237.828C38.9569 236.928 39.8449 236.238 40.9849 235.758C42.1249 235.266 43.4689 235.02 45.0169 235.02C46.5289 235.02 47.8669 235.254 49.0309 235.722C50.2069 236.19 51.1549 236.856 51.8749 237.72C52.5949 238.584 53.0389 239.598 53.2069 240.762L48.7789 241.554C48.6709 240.726 48.2929 240.072 47.6449 239.592C47.0089 239.112 46.1569 238.842 45.0889 238.782C44.0689 238.722 43.2469 238.878 42.6229 239.25C41.9989 239.61 41.6869 240.12 41.6869 240.78C41.6869 241.152 41.8129 241.47 42.0649 241.734C42.3169 241.998 42.8209 242.262 43.5769 242.526C44.3449 242.79 45.4849 243.114 46.9969 243.498C48.5449 243.894 49.7809 244.35 50.7049 244.866C51.6409 245.37 52.3129 245.976 52.7209 246.684C53.1409 247.392 53.3509 248.25 53.3509 249.258C53.3509 251.214 52.6369 252.75 51.2089 253.866C49.7929 254.982 47.8309 255.54 45.3229 255.54ZM65.7354 255.54C63.7314 255.54 62.0214 255.096 60.6054 254.208C59.1894 253.308 58.1034 252.084 57.3474 250.536C56.6034 248.988 56.2254 247.236 56.2134 245.28C56.2254 243.288 56.6154 241.524 57.3834 239.988C58.1634 238.44 59.2674 237.228 60.6954 236.352C62.1234 235.464 63.8214 235.02 65.7894 235.02C67.9974 235.02 69.8634 235.578 71.3874 236.694C72.9234 237.798 73.9254 239.31 74.3934 241.23L70.0734 242.4C69.7374 241.356 69.1794 240.546 68.3994 239.97C67.6194 239.382 66.7314 239.088 65.7354 239.088C64.6074 239.088 63.6774 239.358 62.9454 239.898C62.2134 240.426 61.6734 241.158 61.3254 242.094C60.9774 243.03 60.8034 244.092 60.8034 245.28C60.8034 247.128 61.2174 248.622 62.0454 249.762C62.8734 250.902 64.1034 251.472 65.7354 251.472C66.8874 251.472 67.7934 251.208 68.4534 250.68C69.1254 250.152 69.6294 249.39 69.9654 248.394L74.3934 249.384C73.7934 251.364 72.7434 252.888 71.2434 253.956C69.7434 255.012 67.9074 255.54 65.7354 255.54ZM77.8331 255V228.54H82.1711V255H77.8331ZM92.999 255.54C91.595 255.54 90.407 255.276 89.435 254.748C88.463 254.208 87.725 253.494 87.221 252.606C86.729 251.718 86.483 250.74 86.483 249.672C86.483 248.736 86.639 247.896 86.951 247.152C87.263 246.396 87.743 245.748 88.391 245.208C89.039 244.656 89.879 244.206 90.911 243.858C91.691 243.606 92.603 243.378 93.647 243.174C94.703 242.97 95.843 242.784 97.067 242.616C98.303 242.436 99.593 242.244 100.937 242.04L99.389 242.922C99.401 241.578 99.101 240.588 98.489 239.952C97.877 239.316 96.845 238.998 95.393 238.998C94.517 238.998 93.671 239.202 92.855 239.61C92.039 240.018 91.469 240.72 91.145 241.716L87.185 240.474C87.665 238.83 88.577 237.51 89.921 236.514C91.277 235.518 93.101 235.02 95.393 235.02C97.121 235.02 98.639 235.302 99.947 235.866C101.267 236.43 102.245 237.354 102.881 238.638C103.229 239.322 103.439 240.024 103.511 240.744C103.583 241.452 103.619 242.226 103.619 243.066V255H99.821V250.788L100.451 251.472C99.575 252.876 98.549 253.908 97.373 254.568C96.209 255.216 94.751 255.54 92.999 255.54ZM93.863 252.084C94.847 252.084 95.687 251.91 96.383 251.562C97.079 251.214 97.631 250.788 98.039 250.284C98.459 249.78 98.741 249.306 98.885 248.862C99.113 248.31 99.239 247.68 99.263 246.972C99.299 246.252 99.317 245.67 99.317 245.226L100.649 245.622C99.341 245.826 98.219 246.006 97.283 246.162C96.347 246.318 95.543 246.468 94.871 246.612C94.199 246.744 93.605 246.894 93.089 247.062C92.585 247.242 92.159 247.452 91.811 247.692C91.463 247.932 91.193 248.208 91.001 248.52C90.821 248.832 90.731 249.198 90.731 249.618C90.731 250.098 90.851 250.524 91.091 250.896C91.331 251.256 91.679 251.544 92.135 251.76C92.603 251.976 93.179 252.084 93.863 252.084ZM108.665 232.608V228.63H113.003V232.608H108.665ZM108.665 255V235.56H113.003V255H108.665ZM141.741 255V243.192C141.741 241.86 141.411 240.822 140.751 240.078C140.091 239.322 139.197 238.944 138.069 238.944C137.373 238.944 136.749 239.106 136.197 239.43C135.645 239.742 135.207 240.21 134.883 240.834C134.559 241.446 134.397 242.178 134.397 243.03L132.471 241.896C132.459 240.552 132.759 239.37 133.371 238.35C133.995 237.318 134.835 236.514 135.891 235.938C136.947 235.362 138.123 235.074 139.419 235.074C141.567 235.074 143.211 235.722 144.351 237.018C145.503 238.302 146.079 239.994 146.079 242.094V255H141.741ZM118.359 255V235.56H122.193V241.59H122.733V255H118.359ZM130.077 255V243.246C130.077 241.89 129.747 240.834 129.087 240.078C128.427 239.322 127.527 238.944 126.387 238.944C125.283 238.944 124.395 239.322 123.723 240.078C123.063 240.834 122.733 241.818 122.733 243.03L120.789 241.734C120.789 240.474 121.101 239.34 121.725 238.332C122.349 237.324 123.189 236.532 124.245 235.956C125.313 235.368 126.507 235.074 127.827 235.074C129.279 235.074 130.491 235.386 131.463 236.01C132.447 236.622 133.179 237.462 133.659 238.53C134.151 239.586 134.397 240.78 134.397 242.112V255H130.077ZM159.296 255.54C157.328 255.54 155.6 255.114 154.112 254.262C152.624 253.41 151.46 252.228 150.62 250.716C149.792 249.204 149.378 247.464 149.378 245.496C149.378 243.372 149.786 241.53 150.602 239.97C151.418 238.398 152.552 237.18 154.004 236.316C155.456 235.452 157.136 235.02 159.044 235.02C161.06 235.02 162.77 235.494 164.174 236.442C165.59 237.378 166.64 238.704 167.324 240.42C168.008 242.136 168.266 244.158 168.098 246.486H163.796V244.902C163.784 242.79 163.412 241.248 162.68 240.276C161.948 239.304 160.796 238.818 159.224 238.818C157.448 238.818 156.128 239.37 155.264 240.474C154.4 241.566 153.968 243.168 153.968 245.28C153.968 247.248 154.4 248.772 155.264 249.852C156.128 250.932 157.388 251.472 159.044 251.472C160.112 251.472 161.03 251.238 161.798 250.77C162.578 250.29 163.178 249.6 163.598 248.7L167.882 249.996C167.138 251.748 165.986 253.11 164.426 254.082C162.878 255.054 161.168 255.54 159.296 255.54ZM152.6 246.486V243.21H165.974V246.486H152.6ZM172.114 255V235.56H175.948V240.294L175.48 239.682C175.72 239.034 176.038 238.446 176.434 237.918C176.842 237.378 177.328 236.934 177.892 236.586C178.372 236.262 178.9 236.01 179.476 235.83C180.064 235.638 180.664 235.524 181.276 235.488C181.888 235.44 182.482 235.464 183.058 235.56V239.61C182.482 239.442 181.816 239.388 181.06 239.448C180.316 239.508 179.644 239.718 179.044 240.078C178.444 240.402 177.952 240.816 177.568 241.32C177.196 241.824 176.92 242.4 176.74 243.048C176.56 243.684 176.47 244.374 176.47 245.118V255H172.114Z" fill="#F1DD87"/>
</svg>
