<svg width="22" height="22" viewBox="0 0 22 22" fill="none" xmlns="http://www.w3.org/2000/svg">
<g opacity="0.8">
<path opacity="0.4" d="M5.65234 14.0218L8.7696 9.97036L12.3254 12.7635L15.3759 8.82642" stroke="#0D131E" stroke-width="2" stroke-linecap="round" stroke-linejoin="round"/>
<path d="M18.9316 5.00381C20.0372 5.00381 20.9335 4.10753 20.9335 3.00191C20.9335 1.89628 20.0372 1 18.9316 1C17.826 1 16.9297 1.89628 16.9297 3.00191C16.9297 4.10753 17.826 5.00381 18.9316 5.00381Z" stroke="#0D131E" stroke-width="2" stroke-linecap="round" stroke-linejoin="round"/>
<path d="M13.6501 1.87695H6.08103C2.94471 1.87695 1 4.09812 1 7.23444V15.652C1 18.7883 2.90658 20.9999 6.08103 20.9999H15.0419C18.1783 20.9999 20.123 18.7883 20.123 15.652V8.32119" stroke="#0D131E" stroke-width="2" stroke-linecap="round" stroke-linejoin="round"/>
</g>
</svg>
