<svg width="320" height="320" viewBox="0 0 320 320" fill="none" xmlns="http://www.w3.org/2000/svg">
<path d="M159.992 0C248.302 0 320 71.6979 320 160.008C320 248.302 248.302 320 159.992 320C71.6979 320 0 248.302 0 160.008C0 71.6979 71.6979 0 159.992 0ZM159.992 24.006C84.9332 24.006 24.006 84.9492 24.006 160.008C24.006 235.067 84.9332 295.994 159.992 295.994C235.051 295.994 295.994 235.067 295.994 160.008C295.994 84.9492 235.051 24.006 159.992 24.006ZM148.037 148.037H92.023C85.3974 148.037 80.02 153.414 80.02 160.04C80.02 166.666 85.3974 172.043 92.023 172.043H148.037V228.057C148.037 234.683 153.414 240.06 160.04 240.06C166.666 240.06 172.043 234.683 172.043 228.057V172.043H228.057C234.683 172.043 240.06 166.666 240.06 160.04C240.06 153.414 234.683 148.037 228.057 148.037H172.043V92.023C172.043 85.3973 166.666 80.02 160.04 80.02C153.414 80.02 148.037 85.3973 148.037 92.023V148.037Z" fill="#0D131E"/>
</svg>
