<svg width="40" height="44" viewBox="0 0 40 44" fill="none" xmlns="http://www.w3.org/2000/svg">
<g opacity="0.5">
<path opacity="0.4" d="M12 22.4004H26M12 30.4004H20.76" stroke="white" stroke-width="3" stroke-miterlimit="10" stroke-linecap="round" stroke-linejoin="round"/>
<path d="M16 10H24C28 10 28 8 28 6C28 2 26 2 24 2H16C14 2 12 2 12 6C12 10 14 10 16 10Z" stroke="white" stroke-width="3" stroke-miterlimit="10" stroke-linecap="round" stroke-linejoin="round"/>
<path d="M28 6.04004C34.66 6.40004 38 8.86004 38 18V30C38 38 36 42 26 42H14C4 42 2 38 2 30V18C2 8.88004 5.34 6.40004 12 6.04004" stroke="white" stroke-width="3" stroke-miterlimit="10" stroke-linecap="round" stroke-linejoin="round"/>
</g>
</svg>
