<svg width="23" height="24" viewBox="0 0 23 24" fill="none" xmlns="http://www.w3.org/2000/svg">
<g opacity="0.5">
<path opacity="0.4" d="M7.19727 12.2444H14.9139M7.19727 16.6539H12.0257" stroke="#0D131E" stroke-width="1.5" stroke-miterlimit="10" stroke-linecap="round" stroke-linejoin="round"/>
<path d="M9.40201 5.40949H13.8115C16.0163 5.40949 16.0163 4.30712 16.0163 3.20475C16.0163 1 14.9139 1 13.8115 1H9.40201C8.29964 1 7.19727 1 7.19727 3.20475C7.19727 5.40949 8.29964 5.40949 9.40201 5.40949Z" stroke="#0D131E" stroke-width="1.5" stroke-miterlimit="10" stroke-linecap="round" stroke-linejoin="round"/>
<path d="M16.0164 3.22681C19.6873 3.42523 21.5283 4.78115 21.5283 9.81899V16.4332C21.5283 20.8427 20.4259 23.0475 14.914 23.0475H8.29979C2.78792 23.0475 1.68555 20.8427 1.68555 16.4332V9.81899C1.68555 4.79218 3.52651 3.42523 7.19741 3.22681" stroke="#0D131E" stroke-width="1.5" stroke-miterlimit="10" stroke-linecap="round" stroke-linejoin="round"/>
</g>
</svg>
