<svg width="44" height="44" viewBox="0 0 44 44" fill="none" xmlns="http://www.w3.org/2000/svg">
<path d="M22.4067 10.9579C25.0125 10.9141 27.5306 11.8992 29.415 13.6996L34.6734 8.44124C31.3549 5.32457 26.9589 3.61336 22.4067 3.66623C15.4749 3.66357 9.13485 7.57209 6.0233 13.7662L12.1483 18.5162C13.5926 14.0573 17.72 11.0162 22.4067 10.9579Z" fill="white" fill-opacity="0.75"/>
<path d="M6.02336 13.7666C3.42335 18.9476 3.42335 25.0523 6.02336 30.2333L12.1483 25.4833C11.3817 23.2243 11.3817 20.7756 12.1483 18.5166L6.02336 13.7666Z" fill="white" fill-opacity="0.75"/>
<path d="M28.6151 31.2918C23.4744 34.5915 16.6321 33.099 13.3325 27.9583C12.8366 27.1857 12.4388 26.3543 12.1483 25.4834L6.02336 30.2334C9.13486 36.4276 15.475 40.3361 22.4067 40.3334C26.8696 40.4544 31.21 38.8655 34.54 35.8918L28.6151 31.2918Z" fill="white" fill-opacity="0.75"/>
<path d="M39.6733 18.667H22.4067V25.7586H32.2733C31.8609 28.0253 30.5391 30.0246 28.615 31.292L34.5399 35.8921C38.1888 32.3777 40.1756 27.4803 40.0067 22.417C40.0077 21.1595 39.8962 19.9046 39.6733 18.667Z" fill="white" fill-opacity="0.75"/>
</svg>
