<svg width="22" height="22" viewBox="0 0 22 22" fill="none" xmlns="http://www.w3.org/2000/svg">
<path opacity="0.4" d="M11.199 10.7981L9.78898 12.2081C9.00898 12.9881 9.00898 14.2581 9.78898 15.0381C10.569 15.8181 11.839 15.8181 12.619 15.0381L14.839 12.8181C15.5881 12.0668 16.0088 11.0491 16.0088 9.98812C16.0088 8.92713 15.5881 7.90943 14.839 7.15812C14.0877 6.40897 13.07 5.98828 12.009 5.98828C10.948 5.98828 9.93029 6.40897 9.17898 7.15812L6.75898 9.57812C6.44035 9.89648 6.18759 10.2745 6.01513 10.6906C5.84267 11.1067 5.75391 11.5527 5.75391 12.0031C5.75391 12.4535 5.84267 12.8995 6.01513 13.3156C6.18759 13.7317 6.44035 14.1098 6.75898 14.4281" stroke="white" stroke-opacity="0.75" stroke-width="1.5" stroke-linecap="round" stroke-linejoin="round"/>
<path d="M11 21C16.523 21 21 16.523 21 11C21 5.477 16.523 1 11 1C5.477 1 1 5.477 1 11C1 16.523 5.477 21 11 21Z" stroke="white" stroke-opacity="0.75" stroke-width="1.5" stroke-linecap="round" stroke-linejoin="round"/>
</svg>
