<svg width="44" height="44" viewBox="0 0 44 44" fill="none" xmlns="http://www.w3.org/2000/svg">
<path d="M22.0007 12.5859C20.1388 12.5859 18.3187 13.1381 16.7706 14.1725C15.2225 15.2069 14.0159 16.6772 13.3033 18.3973C12.5908 20.1175 12.4044 22.0103 12.7676 23.8365C13.1309 25.6626 14.0275 27.34 15.344 28.6566C16.6606 29.9731 18.338 30.8697 20.1641 31.233C21.9903 31.5962 23.8831 31.4098 25.6033 30.6973C27.3235 29.9848 28.7937 28.7781 29.8281 27.23C30.8626 25.6819 31.4147 23.8618 31.4147 21.9999C31.4147 20.7636 31.1712 19.5395 30.6981 18.3973C30.225 17.2551 29.5316 16.2173 28.6574 15.3432C27.7833 14.469 26.7455 13.7756 25.6033 13.3025C24.4611 12.8294 23.237 12.5859 22.0007 12.5859ZM22.0007 28.1114C20.792 28.1114 19.6103 27.753 18.6053 27.0814C17.6002 26.4099 16.8169 25.4554 16.3543 24.3386C15.8918 23.2219 15.7707 21.993 16.0066 20.8075C16.2424 19.622 16.8245 18.533 17.6792 17.6783C18.5339 16.8236 19.6229 16.2415 20.8085 16.0057C21.994 15.7699 23.2228 15.8909 24.3396 16.3535C25.4563 16.8161 26.4108 17.5994 27.0824 18.6045C27.7539 19.6095 28.1123 20.7911 28.1123 21.9999C28.1124 22.8025 27.9544 23.5973 27.6473 24.3388C27.3402 25.0804 26.89 25.7541 26.3225 26.3217C25.755 26.8892 25.0812 27.3394 24.3396 27.6465C23.5981 27.9535 22.8033 28.1116 22.0007 28.1114Z" fill="white" fill-opacity="0.75"/>
<path d="M40.2231 14.4418C40.193 12.921 39.9051 11.4163 39.3715 9.99186C38.9104 8.76882 38.1888 7.66067 37.2569 6.74419C36.3417 5.81128 35.2339 5.08956 34.0107 4.62949C32.5863 4.09559 31.0815 3.80766 29.5607 3.77798C27.6059 3.68899 26.981 3.66699 22.0022 3.66699C17.0235 3.66699 16.3981 3.68764 14.4422 3.77798C12.9214 3.80803 11.4167 4.09596 9.99226 4.62949C8.76887 5.08998 7.66058 5.81163 6.74458 6.74419C5.81117 7.65946 5.08942 8.76796 4.63002 9.99186C4.09649 11.4163 3.80857 12.921 3.77851 14.4418C3.68814 16.3966 3.66739 17.0216 3.66739 22.0003C3.66739 26.9791 3.68814 27.604 3.77847 29.5587C3.80854 31.0796 4.09647 32.5843 4.63002 34.0088C5.08955 35.2326 5.81128 36.3411 6.74458 37.2565C7.66103 38.1884 8.7692 38.91 9.99226 39.371C11.4168 39.9044 12.9214 40.1923 14.4422 40.2226C16.3981 40.3115 17.022 40.3337 22.0007 40.3337C26.9795 40.3337 27.6045 40.3129 29.5592 40.2226C31.08 40.1925 32.5847 39.9046 34.0092 39.371C35.2272 38.9001 36.3334 38.1799 37.2569 37.2564C38.1803 36.333 38.9006 35.2268 39.3715 34.0088C39.9057 32.5845 40.1936 31.0796 40.2231 29.5587C40.312 27.6026 40.3326 26.9791 40.3326 22.0003C40.3326 17.0216 40.312 16.3966 40.2231 14.4418ZM36.9249 29.4093C36.9108 30.5719 36.6975 31.7234 36.2942 32.8139C35.9891 33.6045 35.5218 34.3225 34.9224 34.9216C34.323 35.5207 33.6049 35.9877 32.8141 36.2925C31.7239 36.6967 30.5721 36.91 29.4095 36.9232C27.477 37.012 26.8965 37.0298 22.0006 37.0298C17.1047 37.0298 16.5259 37.012 14.5939 36.9232C13.4313 36.9099 12.2796 36.6965 11.1893 36.2925C10.393 35.9982 9.6725 35.5297 9.08053 34.9212C8.47111 34.3306 8.00242 33.6103 7.70919 32.8139C7.30499 31.7237 7.09164 30.572 7.07853 29.4093C6.98961 27.4768 6.97192 26.8964 6.97192 22.0005C6.97192 17.1045 6.99115 16.5257 7.07853 14.5916C7.09317 13.4291 7.30647 12.2777 7.70919 11.1871C8.00347 10.3908 8.472 9.67028 9.08053 9.07831C9.67147 8.46854 10.3923 7.99982 11.1893 7.70698C12.2795 7.30282 13.4313 7.08948 14.5939 7.07631C16.5264 6.98742 17.1069 6.96971 22.0006 6.96971C26.8944 6.96971 27.4754 6.98894 29.4095 7.07631C30.572 7.09096 31.7235 7.30425 32.8141 7.70698C33.6051 8.01178 34.3235 8.47893 34.9229 9.07834C35.5223 9.67775 35.9894 10.3961 36.2942 11.1871C36.6984 12.2773 36.9117 13.429 36.9249 14.5916C37.0138 16.5258 37.0315 17.1046 37.0315 22.0005C37.0315 26.8963 37.0138 27.4752 36.9249 29.4093Z" fill="white" fill-opacity="0.75"/>
<path d="M31.7882 10.0137C31.2048 10.0138 30.6446 10.2456 30.2322 10.6581C29.8198 11.0707 29.5881 11.6301 29.5882 12.2135C29.5882 12.7968 29.82 13.3563 30.2325 13.7687C30.645 14.1812 31.2044 14.4129 31.7878 14.4129C32.3711 14.4129 32.9306 14.1812 33.3431 13.7687C33.7556 13.3563 33.9873 12.7968 33.9874 12.2135C33.9874 11.6301 33.7558 11.0707 33.3433 10.6581C32.9309 10.2456 32.3715 10.0138 31.7882 10.0137Z" fill="white" fill-opacity="0.75"/>
</svg>
