<svg width="40" height="40" viewBox="0 0 40 40" fill="none" xmlns="http://www.w3.org/2000/svg">
<path d="M32.7075 31.9999L28.8557 24.3145L25.004 31.9999M25.7078 30.6356H32.0433" stroke="white" stroke-width="3" stroke-linecap="round" stroke-linejoin="round"/>
<path d="M14.6225 8.93308H7.315M10.9507 7.70917V8.93308M28.854 37.9973C27.653 37.9972 26.4639 37.7605 25.3544 37.3008C24.2449 36.8411 23.2368 36.1674 22.3877 35.3181C21.5386 34.4688 20.865 33.4606 20.4056 32.351C19.9461 31.2415 19.7097 30.0522 19.7098 28.8513C19.7099 27.6503 19.9466 26.4612 20.4062 25.3517C20.8659 24.2422 21.5397 23.2341 22.389 22.385C23.2382 21.5359 24.2465 20.8623 25.356 20.4029C26.4656 19.9434 27.6548 19.707 28.8558 19.7071C31.2812 19.7073 33.6072 20.671 35.3221 22.3863C37.037 24.1015 38.0002 26.4277 38 28.8531C37.9998 31.2785 37.036 33.6045 35.3208 35.3194C33.6056 37.0343 31.2794 37.9975 28.854 37.9973ZM7.43559 2H14.4911C18.2168 2 20.0166 3.79987 19.9267 7.43559V14.4911C20.0166 18.2168 18.2168 20.0166 14.4911 19.9267H7.43559C3.79987 19.9987 2 18.1988 2 14.4731V7.41759C2 3.79987 3.79987 2 7.43559 2Z" stroke="white" stroke-width="3" stroke-linecap="round" stroke-linejoin="round"/>
<path d="M12.7828 8.91846C12.7828 12.0682 10.317 14.624 7.29321 14.624" stroke="white" stroke-width="3" stroke-linecap="round" stroke-linejoin="round"/>
<path d="M14.6173 14.6172C13.3034 14.6172 12.1155 13.9152 11.2876 12.7993" stroke="white" stroke-width="3" stroke-linecap="round" stroke-linejoin="round"/>
<path opacity="0.4" d="M2 25.3982C2 32.3637 7.63358 37.9973 14.5991 37.9973L12.7092 34.8475M37.9973 14.5991C37.9973 7.63358 32.3637 2 25.3982 2L27.2881 5.14976" stroke="white" stroke-width="3" stroke-linecap="round" stroke-linejoin="round"/>
</svg>
