<svg width="48" height="48" viewBox="0 0 48 48" fill="none" xmlns="http://www.w3.org/2000/svg">
<path d="M10.008 13.9997H9.95C9.33589 14.038 8.72047 13.9492 8.14227 13.7388C7.56407 13.5283 7.03555 13.2007 6.5898 12.7766C6.14405 12.3524 5.79067 11.8408 5.55178 11.2738C5.3129 10.7067 5.19366 10.0965 5.20153 9.4812C5.2094 8.86594 5.34421 8.25893 5.59751 7.69818C5.85082 7.13743 6.21717 6.63502 6.67362 6.2224C7.13007 5.80977 7.6668 5.49583 8.25019 5.30023C8.83358 5.10463 9.45107 5.03158 10.064 5.08565C10.6781 5.04275 11.2945 5.12717 11.8745 5.33361C12.4544 5.54004 12.9855 5.86406 13.4344 6.28533C13.8833 6.70661 14.2403 7.21607 14.4831 7.78178C14.7259 8.3475 14.8493 8.95726 14.8454 9.57287C14.8415 10.1885 14.7106 10.7966 14.4607 11.3593C14.2108 11.9219 13.8474 12.4268 13.3932 12.8424C12.9391 13.258 12.4039 13.5753 11.8214 13.7745C11.2389 13.9736 10.6215 14.0503 10.008 13.9997ZM6.036 19.9997H14.036V43.9997H6.036V19.9997ZM35.036 19.9997C33.688 20.0033 32.3582 20.3115 31.1461 20.9013C29.934 21.4911 28.8708 22.3472 28.036 23.4057V19.9997H20.036V43.9997H28.036V32.9997C28.036 31.9388 28.4574 30.9214 29.2076 30.1712C29.9577 29.4211 30.9751 28.9997 32.036 28.9997C33.0969 28.9997 34.1143 29.4211 34.8644 30.1712C35.6146 30.9214 36.036 31.9388 36.036 32.9997V43.9997H44.036V28.9997C44.036 26.6127 43.0878 24.3235 41.4 22.6357C39.7121 20.9479 37.4229 19.9997 35.036 19.9997Z" fill="white" fill-opacity="0.75"/>
</svg>
