<svg width="32" height="40" viewBox="0 0 32 40" fill="none" xmlns="http://www.w3.org/2000/svg">
<g opacity="0.5">
<path d="M15.7698 26.2999C19.7478 26.2999 22.9697 23.0779 22.9697 19.0999V9.19996C22.9697 5.22198 19.7478 2 15.7698 2C11.7918 2 8.56982 5.22198 8.56982 9.19996V19.0999C8.56982 23.0779 11.7918 26.2999 15.7698 26.2999Z" stroke="white" stroke-width="3" stroke-linecap="round" stroke-linejoin="round"/>
<path d="M2 15.77V18.83C2 26.426 8.17396 32.5999 15.7699 32.5999M15.7699 32.5999C23.3659 32.5999 29.5398 26.426 29.5398 18.83V15.77M15.7699 32.5999V37.9999M13.2679 9.97406C14.8879 9.38007 16.6519 9.38007 18.2719 9.97406M14.3299 13.79C15.2839 13.538 16.2739 13.538 17.2279 13.79" stroke="white" stroke-width="3" stroke-linecap="round" stroke-linejoin="round"/>
</g>
</svg>
