<svg width="40" height="40" viewBox="0 0 40 40" fill="none" xmlns="http://www.w3.org/2000/svg">
<path d="M20 31.6998C23.1031 31.6998 26.079 30.4671 28.2732 28.273C30.4674 26.0788 31.7 23.1028 31.7 19.9998C31.7 16.8968 30.4674 13.9208 28.2732 11.7267C26.079 9.53248 23.1031 8.2998 20 8.2998C16.897 8.2998 13.9211 9.53248 11.7269 11.7267C9.53272 13.9208 8.30005 16.8968 8.30005 19.9998C8.30005 23.1028 9.53272 26.0788 11.7269 28.273C13.9211 30.4671 16.897 31.6998 20 31.6998Z" stroke="white" stroke-width="3" stroke-linecap="round" stroke-linejoin="round"/>
<g opacity="0.4">
<path d="M32.852 32.852L32.618 32.618L32.852 32.852Z" fill="white" fill-opacity="0.75"/>
<path d="M32.852 32.852L32.618 32.618M32.618 7.382L32.852 7.148M7.148 32.852L7.382 32.618M20 2.144V2M20 38V37.856M2.144 20H2M38 20H37.856M7.382 7.382L7.148 7.148" stroke="white" stroke-width="3" stroke-linecap="round" stroke-linejoin="round"/>
</g>
</svg>
