<svg width="40" height="34" viewBox="0 0 40 34" fill="none" xmlns="http://www.w3.org/2000/svg">
<path d="M40 4.59206C38.5021 5.25601 36.9131 5.69152 35.286 5.88406C37.0004 4.85896 38.2835 3.24534 38.896 1.34406C37.2853 2.301 35.5224 2.97476 33.684 3.33606C32.5576 2.1369 31.0969 1.30383 29.4913 0.944871C27.8857 0.585909 26.2093 0.717615 24.6795 1.32291C23.1496 1.9282 21.8369 2.97916 20.9116 4.33951C19.9863 5.69985 19.491 7.30683 19.49 8.95205C19.4889 9.58133 19.5593 10.2087 19.7 10.8221C16.4375 10.6583 13.2459 9.8103 10.3324 8.3332C7.41883 6.85609 4.84843 4.78286 2.788 2.24806C1.73852 4.05477 1.417 6.19352 1.88888 8.22894C2.36077 10.2644 3.59059 12.0434 5.328 13.2041C4.02385 13.1641 2.74825 12.8123 1.608 12.1781V12.2821C1.60832 14.177 2.26412 16.0135 3.46416 17.48C4.66421 18.9465 6.3346 19.9528 8.192 20.3281C7.48737 20.5196 6.76021 20.6158 6.03 20.6141C5.51131 20.6143 4.99373 20.5661 4.484 20.4701C5.0081 22.1004 6.02853 23.5262 7.40263 24.5481C8.77674 25.5701 10.4358 26.1372 12.148 26.1701C8.70684 28.8634 4.33883 30.0837 0 29.5641C3.75211 31.9761 8.1195 33.2564 12.58 33.2521C15.6515 33.2728 18.6966 32.6831 21.5383 31.5171C24.38 30.3512 26.9618 28.6323 29.1336 26.4603C31.3055 24.2882 33.0242 21.7063 34.1899 18.8645C35.3555 16.0227 35.945 12.9776 35.924 9.90606C35.924 9.55006 35.9153 9.19672 35.898 8.84606C37.5071 7.68286 38.8961 6.24236 40 4.59206Z" fill="white" fill-opacity="0.75"/>
</svg>
