<svg width="32" height="36" viewBox="0 0 32 36" fill="none" xmlns="http://www.w3.org/2000/svg">
<path opacity="0.4" d="M15.9631 17.561C18.2918 17.561 20.5252 16.6359 22.1718 14.9892C23.8185 13.3426 24.7436 11.1092 24.7436 8.78049C24.7436 6.45176 23.8185 4.21841 22.1718 2.57175C20.5252 0.925084 18.2918 0 15.9631 0C13.6344 0 11.401 0.925084 9.75436 2.57175C8.1077 4.21841 7.18262 6.45176 7.18262 8.78049C7.18262 11.1092 8.1077 13.3426 9.75436 14.9892C11.401 16.6359 13.6344 17.561 15.9631 17.561Z" fill="white" fill-opacity="0.75"/>
<path d="M15.9629 21.9512C7.16488 21.9512 0 27.8517 0 35.1219C0 35.6136 0.386341 36 0.878049 36H31.0478C31.5395 36 31.9259 35.6136 31.9259 35.1219C31.9259 27.8517 24.761 21.9512 15.9629 21.9512Z" fill="white" fill-opacity="0.75"/>
</svg>
