<svg width="16" height="18" viewBox="0 0 16 18" fill="none" xmlns="http://www.w3.org/2000/svg">
<path opacity="0.4" d="M7.98204 8.78049C9.14641 8.78049 10.2631 8.31795 11.0864 7.49462C11.9097 6.67128 12.3723 5.55461 12.3723 4.39024C12.3723 3.22588 11.9097 2.1092 11.0864 1.28587C10.2631 0.462542 9.14641 0 7.98204 0C6.81768 0 5.701 0.462542 4.87767 1.28587C4.05434 2.1092 3.5918 3.22588 3.5918 4.39024C3.5918 5.55461 4.05434 6.67128 4.87767 7.49462C5.701 8.31795 6.81768 8.78049 7.98204 8.78049Z" fill="#0D131E"/>
<path d="M7.98146 10.9756C3.58244 10.9756 0 13.9258 0 17.561C0 17.8068 0.193171 18 0.439024 18H15.5239C15.7698 18 15.9629 17.8068 15.9629 17.561C15.9629 13.9258 12.3805 10.9756 7.98146 10.9756Z" fill="#0D131E"/>
</svg>
