<svg width="40" height="40" viewBox="0 0 40 40" fill="none" xmlns="http://www.w3.org/2000/svg">
<path opacity="0.34" d="M13.4722 19.9789L17.8091 24.3338L26.5009 15.624" stroke="white" stroke-width="3" stroke-linecap="round" stroke-linejoin="round"/>
<path d="M17.7371 2.7963C18.9788 1.73457 21.0122 1.73457 22.2719 2.7963L25.1152 5.24369C25.6551 5.71157 26.6628 6.08948 27.3827 6.08948H30.4419C32.3494 6.08948 33.915 7.65509 33.915 9.56261V12.6218C33.915 13.3237 34.2929 14.3494 34.7608 14.8893L37.2082 17.7326C38.2699 18.9743 38.2699 21.0078 37.2082 22.2674L34.7608 25.1107C34.2929 25.6506 33.915 26.6583 33.915 27.3782V30.4374C33.915 32.3449 32.3494 33.9105 30.4419 33.9105H27.3827C26.6808 33.9105 25.6551 34.2884 25.1152 34.7563L22.2719 37.2037C21.0302 38.2654 18.9968 38.2654 17.7371 37.2037L14.8938 34.7563C14.3539 34.2884 13.3462 33.9105 12.6263 33.9105H9.51312C7.6056 33.9105 6.03999 32.3449 6.03999 30.4374V27.3602C6.03999 26.6583 5.66208 25.6506 5.2122 25.1107L2.7828 22.2494C1.73907 21.0077 1.73907 18.9923 2.7828 17.7506L5.2122 14.8893C5.66208 14.3494 6.03999 13.3417 6.03999 12.6398V9.54461C6.03999 7.63709 7.6056 6.07148 9.51312 6.07148H12.6263C13.3282 6.07148 14.3539 5.69358 14.8938 5.22569L17.7371 2.7963Z" stroke="white" stroke-width="3" stroke-linecap="round" stroke-linejoin="round"/>
</svg>
